<svg width="1128" height="315" viewBox="0 0 1128 315" fill="none" xmlns="http://www.w3.org/2000/svg">
<path fill-rule="evenodd" clip-rule="evenodd" d="M133.158 299.5C126.239 299.612 116.314 294 116.314 294C95.522 283.604 54.8867 243.173 49.8873 191.929C45.0374 142.218 70.8365 93.7162 132.516 93.5048L132.611 93.5046C132.649 93.5044 132.686 93.5042 132.724 93.5043L132.921 93.5042C194.6 93.7155 220.399 142.218 215.549 191.929C210.55 243.173 169.915 283.604 149.123 294C149.123 294 139.751 299.393 133.158 299.5Z" fill="#001835"/>
<path d="M168.657 122.728C167.552 124.719 165.806 129.255 167.659 131.475L161.85 133.278C167.442 116.86 178.211 82.8957 176.561 78.3824C174.497 72.7407 195.749 64.9565 183.739 83.2546C174.132 97.8931 169.681 115.669 168.657 122.728Z" fill="#001835" stroke="black" stroke-width="1.93247"/>
<path d="M189.58 69.9825C187.945 71.9959 183.817 75.7855 180.382 74.8365L181.414 81.6386C196.734 68.6774 228.844 42.6893 234.721 42.4272C242.068 42.0995 239.611 16.694 225.556 37.1223C214.312 53.465 196.887 65.8386 189.58 69.9825Z" fill="#001835" stroke="black" stroke-width="1.93247"/>
<path d="M96.5111 122.728C97.6158 124.719 99.3618 129.255 97.5086 131.475L103.317 133.278C97.7261 116.86 86.9564 82.8957 88.6073 78.3824C90.6709 72.7407 69.4192 64.9565 81.4287 83.2546C91.0362 97.8931 95.4868 115.669 96.5111 122.728Z" fill="#001835" stroke="black" stroke-width="1.93247"/>
<path d="M75.588 69.9825C77.2226 71.9959 81.3507 75.7855 84.7861 74.8365L83.7533 81.6386C68.4334 68.6774 36.324 42.6893 30.4466 42.4272C23.0998 42.0995 25.5565 16.694 39.6114 37.1223C50.8554 53.465 68.2808 65.8386 75.588 69.9825Z" fill="#001835" stroke="black" stroke-width="1.93247"/>
<path fill-rule="evenodd" clip-rule="evenodd" d="M92.3011 260.462C96.3978 264.159 100.646 267.992 104.571 271.745C106.382 273.477 108.648 275.706 110.341 277.736C110.405 277.811 110.483 277.889 110.562 277.968C110.811 278.215 111.078 278.48 110.979 278.771C110.952 278.849 110.863 278.877 110.777 278.905C110.742 278.916 110.707 278.926 110.677 278.941C110.35 279.093 110.119 279.188 109.929 279.266C109.393 279.487 109.182 279.573 108.068 280.451C103.373 284.152 100.174 289.184 97.6181 294.544C97.4747 294.845 97.3489 295.154 97.223 295.463C97.0486 295.891 96.8743 296.32 96.6536 296.725C96.6494 296.732 96.6452 296.74 96.6409 296.748C96.5348 296.943 96.387 297.216 96.1755 297.191C95.7556 297.143 95.4546 295.999 95.2618 295.265C95.2005 295.032 95.1501 294.841 95.1103 294.739C94.7307 293.77 94.6657 294.392 94.5996 295.025C94.5912 295.106 94.5827 295.187 94.5736 295.265C94.0693 299.565 93.8814 303.936 94.6742 308.213C95.0854 310.432 96.0023 312.724 97.0897 314.713C97.2654 315.034 97.2262 315.096 96.7375 314.848C93.3054 313.112 90.8841 309.15 89.1639 305.863C86.5807 300.927 85.6247 295.746 85.289 290.217C84.8596 283.145 84.8134 275.786 85.8174 268.759C86.3046 265.348 87.5417 262.453 88.9542 259.392C89.0219 259.245 89.0869 259.078 89.1536 258.907C89.278 258.587 89.4086 258.252 89.5748 258C90.4724 258.812 91.383 259.634 92.3011 260.462ZM173.699 260.463C169.602 264.159 165.355 267.992 161.429 271.745C159.618 273.477 157.352 275.706 155.659 277.736C155.596 277.811 155.518 277.889 155.438 277.968C155.189 278.215 154.922 278.48 155.021 278.771C155.048 278.849 155.137 278.877 155.224 278.905C155.259 278.916 155.293 278.926 155.323 278.941C155.65 279.093 155.881 279.188 156.071 279.266C156.607 279.487 156.818 279.573 157.932 280.451C162.628 284.152 165.826 289.184 168.382 294.544C168.525 294.845 168.651 295.154 168.777 295.463C168.952 295.891 169.126 296.32 169.347 296.725L169.359 296.748C169.465 296.943 169.613 297.216 169.825 297.191C170.245 297.143 170.545 295.999 170.738 295.265C170.8 295.032 170.85 294.841 170.89 294.739C171.269 293.77 171.334 294.392 171.4 295.025C171.409 295.106 171.417 295.187 171.427 295.265C171.931 299.565 172.119 303.936 171.326 308.213C170.915 310.432 169.998 312.724 168.91 314.713C168.735 315.034 168.774 315.096 169.263 314.848C172.695 313.112 175.116 309.15 176.836 305.863C179.419 300.927 180.375 295.746 180.711 290.217C181.14 283.145 181.187 275.786 180.183 268.759C179.695 265.348 178.458 262.453 177.046 259.392C176.978 259.245 176.913 259.078 176.846 258.907C176.722 258.587 176.592 258.252 176.425 258C175.528 258.812 174.617 259.634 173.699 260.463Z" fill="url(#paint0_linear)"/>
<path d="M353.014 160.337V169.387C348.343 163.548 340.461 158.439 330.097 158.439C308.494 158.439 292 175.663 292 196.682C292 216.826 309.078 235.655 330.097 235.655C340.461 235.655 348.343 230.692 353.014 224.854V233.758H379.58V160.337H353.014ZM354.182 199.456C352.576 208.214 345.862 213.76 337.104 213.76C326.01 213.76 319.442 206.17 319.442 196.682C319.442 186.319 325.426 180.334 337.104 180.334C345.862 180.334 352.576 186.027 354.182 194.785V199.456Z" fill="#F24545"/>
<path d="M443.03 158.439C432.666 158.439 424.784 163.402 419.967 169.241V160.337H394.131V233.758H420.697V194.639C422.156 185.881 427.265 180.334 435.001 180.334C443.613 180.334 445.949 183.837 445.949 193.909V233.758H472.515V193.909C472.515 171.284 463.757 158.439 443.03 158.439Z" fill="#F24545"/>
<path d="M520.802 181.502H541.967V160.337H520.802V131.581H494.236V160.337H481.391V181.502H494.236V233.758H520.802V181.502Z" fill="#F24545"/>
<path d="M576.899 181.356C576.899 179.166 578.505 178.145 585.511 178.145C592.226 178.145 598.648 179.75 604.925 183.399L613.537 166.029C605.071 160.921 596.313 158.439 583.759 158.439C565.66 158.439 549.895 163.986 549.895 181.502C549.895 194.055 559.675 199.602 570.622 203.543C582.884 207.922 586.679 209.527 586.679 212.739C586.679 214.782 584.635 215.804 577.337 215.804C571.352 215.804 561.427 212.885 554.566 208.943L546.538 227.481C555.88 232.736 565.806 235.655 579.964 235.655C598.94 235.655 613.683 230.692 613.683 212.155C613.683 198.872 604.341 193.617 590.912 189.092C579.234 185.151 576.899 184.129 576.899 181.356Z" fill="#F24545"/>
<path d="M659.356 181.502H680.521V160.337H659.356V131.581H632.79V160.337H619.945V181.502H632.79V233.758H659.356V181.502Z" fill="#F24545"/>
<path d="M747.437 160.337V169.387C742.766 163.548 734.884 158.439 724.52 158.439C702.917 158.439 686.423 175.663 686.423 196.682C686.423 216.826 703.501 235.655 724.52 235.655C734.884 235.655 742.766 230.692 747.437 224.854V233.758H774.003V160.337H747.437ZM748.605 199.456C746.999 208.214 740.284 213.76 731.526 213.76C720.433 213.76 713.865 206.17 713.865 196.682C713.865 186.319 719.849 180.334 731.526 180.334C740.284 180.334 746.999 186.027 748.605 194.785V199.456Z" fill="#F24545"/>
<path d="M829.862 213.76C820.228 213.76 813.076 207.338 813.076 196.828C813.222 185.881 818.623 180.334 828.84 180.334C835.117 180.334 842.415 181.648 848.984 184.421V162.234C842.269 159.753 836.869 158.439 828.84 158.439C806.07 158.439 785.634 173.62 785.634 196.828C785.634 219.599 805.924 235.655 828.84 235.655C835.993 235.655 842.999 234.634 848.984 232.59V210.257C841.102 213.176 835.409 213.76 829.862 213.76Z" fill="#F24545"/>
<path d="M942.844 233.758L900.951 191.427L940.654 160.337H907.228L887.668 175.663V111H861.394V233.758H887.668V210.841L909.855 233.758H942.844Z" fill="#F24545"/>
<path d="M967.998 204.71C957.78 204.71 950.628 210.841 950.628 220.183C950.628 229.525 957.78 235.655 967.998 235.655C978.361 235.655 985.514 229.525 985.514 220.183C985.514 210.841 978.361 204.71 967.998 204.71Z" fill="#F24545"/>
<path d="M1000.09 160.337V233.758H1026.66V160.337H1000.09ZM1013.37 121.218C1004.18 121.218 998.047 127.056 998.047 135.376C998.047 143.551 1004.18 149.535 1013.37 149.535C1022.57 149.535 1028.7 143.551 1028.7 135.376C1028.7 127.056 1022.57 121.218 1013.37 121.218Z" fill="#F24545"/>
<path d="M1082.89 158.439C1059.97 158.439 1038.37 174.641 1038.37 196.974C1038.37 219.453 1059.97 235.655 1082.89 235.655C1105.8 235.655 1127.41 219.453 1127.41 196.974C1127.41 174.641 1105.8 158.439 1082.89 158.439ZM1082.89 213.76C1072.67 213.76 1065.81 207.192 1065.81 196.974C1065.81 186.757 1072.67 180.334 1082.89 180.334C1093.1 180.334 1099.97 186.757 1099.97 196.974C1099.97 207.192 1093.1 213.76 1082.89 213.76Z" fill="#F24545"/>
<ellipse cx="74.0001" cy="180.5" rx="41" ry="51.5" fill="#F24545"/>
<ellipse cx="192.544" cy="180.5" rx="41" ry="51.5" fill="#F24545"/>
<defs>
<linearGradient id="paint0_linear" x1="168" y1="258" x2="168" y2="315" gradientUnits="userSpaceOnUse">
<stop stop-color="#082D59"/>
<stop offset="1" stop-color="#001835"/>
</linearGradient>
</defs>
</svg>
